<svg width="40" height="29" viewBox="0 0 40 29" fill="none" xmlns="http://www.w3.org/2000/svg">
<path fill-rule="evenodd" clip-rule="evenodd" d="M14.3732 0H0V20.1403L10.7461 27H20V4.75407L14.3732 0ZM3.5 8H15.5V10H3.5V8ZM15.5 12.5H3.5V14.5H15.5V12.5ZM3.5 17H15.5V19H3.5V17Z" fill="#146C92"/>
<path fill-rule="evenodd" clip-rule="evenodd" d="M25.6268 0H40V20.1403L29.2539 27H20V4.75407L25.6268 0ZM36.5 8H24.5V10H36.5V8ZM24.5 12.5H36.5V14.5H24.5V12.5ZM36.5 17H24.5V19H36.5V17Z" fill="#146C92"/>
<rect x="18" y="18.5" width="4" height="10" fill="#146C92"/>
</svg>
