<svg width="87" height="87" viewBox="0 0 87 87" fill="none" xmlns="http://www.w3.org/2000/svg">
<path fill-rule="evenodd" clip-rule="evenodd" d="M8.99998 21.8121C8.99998 20.2497 7.09314 19.6325 6.2827 20.9683C2.29558 27.54 0 35.2519 0 43.5C0 51.7481 2.29558 59.46 6.2827 66.0317C7.09314 67.3675 8.99998 66.7503 8.99998 65.1879C8.99998 64.8846 8.91503 64.5878 8.75885 64.3278C5.10253 58.2421 3 51.1166 3 43.5C3 35.8834 5.10253 28.7579 8.75885 22.6722C8.91503 22.4122 8.99998 22.1154 8.99998 21.8121ZM25.5414 80C25.7962 80 26.0475 80.058 26.2781 80.1665C31.5043 82.6255 37.3416 84 43.5 84C65.8675 84 84 65.8675 84 43.5C84 21.1325 65.8675 3 43.5 3C40.5424 3 37.6589 3.31703 34.8815 3.91895C33.9268 4.12587 33 3.41524 33 2.43833C33 1.75535 33.4649 1.15766 34.132 1.01124C37.1493 0.349018 40.2839 0 43.5 0C67.5244 0 87 19.4756 87 43.5C87 67.5244 67.5244 87 43.5 87C36.8093 87 30.4715 85.4895 24.8089 82.7909C23.2866 82.0654 23.8551 80 25.5414 80Z" fill="#146C92"/>
</svg>
