<svg width="28" height="27" viewBox="0 0 28 27" fill="none" xmlns="http://www.w3.org/2000/svg">
<path d="M19.4207 26.456C19.6675 26.95 20.2701 27.1533 20.7458 26.8729C22.4969 25.8407 24.0137 24.4483 25.1933 22.7838C26.566 20.8468 27.4399 18.6012 27.7375 16.2459C28.035 13.8905 27.7471 11.4981 26.8993 9.28061C26.0514 7.0631 24.6697 5.08892 22.8766 3.53293C21.0836 1.97694 18.9344 0.887181 16.6196 0.360178C14.3047 -0.166826 11.8956 -0.114805 9.60568 0.511631C7.31574 1.13807 5.21564 2.31958 3.49139 3.95152C2.00968 5.3539 0.844834 7.05171 0.0696464 8.93071C-0.140951 9.44118 0.14526 10.0092 0.669084 10.1839C1.19291 10.3587 1.75549 10.0737 1.97176 9.56562C2.63916 7.99767 3.6232 6.58015 4.866 5.40388C6.3514 3.998 8.1606 2.98015 10.1333 2.44048C12.1061 1.90082 14.1815 1.85601 16.1757 2.31001C18.1699 2.76401 20.0213 3.70282 21.566 5.04327C23.1107 6.38373 24.301 8.08445 25.0314 9.99479C25.7619 11.9051 26.0099 13.9661 25.7535 15.9952C25.4972 18.0243 24.7444 19.9589 23.5618 21.6275C22.5723 23.0237 21.3076 24.1976 19.8493 25.0792C19.3767 25.3649 19.1738 25.962 19.4207 26.456Z" fill="#146C92"/>
<path d="M4.22209 13.3735C3.78792 13.7808 3.78792 14.4702 4.22209 14.8775L10.2124 20.4976C10.8709 21.1154 11.9491 20.6485 11.9491 19.7456L11.9491 8.50544C11.9491 7.60253 10.8709 7.13565 10.2124 7.75343L4.22209 13.3735Z" fill="#146C92"/>
<rect width="11.7169" height="4.82462" rx="1" transform="matrix(-1.03117 0 0 1.03117 22.9652 11.638)" fill="#146C92"/>
</svg>
